<svg width="465" height="120" viewBox="0 0 465 120" fill="none" xmlns="http://www.w3.org/2000/svg">
<g clip-path="url(#clip0_21_7)">
<path d="M144.42 120V64.6091H152.342V112.124H164.961V120H144.42Z" fill="black"/>
<path d="M177.711 64.6091H185.632V120H177.711V64.6091Z" fill="black"/>
<path d="M200.902 64.6091H213.105C220.14 64.6309 223.654 68.5146 223.654 76.271V84.6C223.654 88.2328 222.211 90.8019 219.318 92.3073C222.211 93.8128 223.654 96.3819 223.654 100.015V108.371C223.654 116.105 219.972 119.984 212.602 120H200.907V64.6091H200.902ZM208.823 72.4855V88.3528H211.315C212.418 88.3528 213.17 88.2764 213.581 88.1291C215.019 87.5455 215.738 86.3673 215.738 84.6V76.271C215.738 73.751 214.592 72.4855 212.294 72.4855H208.823ZM208.823 96.2564V112.124H212.294C214.587 112.124 215.738 110.875 215.738 108.371V100.015C215.738 98.2473 215.019 97.08 213.581 96.5128C213.17 96.3437 212.413 96.2564 211.315 96.2564H208.823Z" fill="black"/>
<path d="M237.939 64.6091H258.481V72.4855H245.861V88.3528H256.718V96.2564H245.861V112.124H258.481V120H237.939V64.6091Z" fill="black"/>
<path d="M272.214 64.6091H283.742C290.776 64.6309 294.291 68.5146 294.291 76.271V84.6C294.291 89.4764 292.209 92.6837 288.051 94.2273L296.951 120H288.278L281.141 95.6346L280.135 95.7764V120H272.214V64.6091ZM280.135 72.4855V88.3528H281.952C283.055 88.3528 283.807 88.2764 284.218 88.1291C285.656 87.5455 286.375 86.3673 286.375 84.6V76.271C286.375 73.751 285.229 72.4855 282.931 72.4855H280.13H280.135Z" fill="black"/>
<path d="M329.793 64.6091V72.4855H322.375V120H314.454V72.4855H307.035V64.6091H329.788H329.793Z" fill="black"/>
<path d="M365.322 100.353L367.896 120H359.894L358.353 108.256H350.264L348.696 120H340.721L343.294 100.435L348.891 64.6091H359.748L365.317 100.353H365.322ZM354.07 62.4654H349.675L353.649 55.3254H359.861L354.07 62.4654ZM357.315 100.353L354.292 77.3182L351.27 100.353H357.315Z" fill="black"/>
<path d="M379.948 64.6091H391.476C398.51 64.6309 402.025 68.5146 402.025 76.271V84.6C402.025 89.4764 399.943 92.6837 395.785 94.2273L404.685 120H396.012L388.875 95.6346L387.869 95.7764V120H379.948V64.6091ZM387.869 72.4855V88.3528H389.686C390.789 88.3528 391.541 88.2764 391.952 88.1291C393.39 87.5455 394.109 86.3673 394.109 84.6V76.271C394.109 73.751 392.963 72.4855 390.665 72.4855H387.864H387.869Z" fill="black"/>
<path d="M417.159 64.6091H425.08V120H417.159V64.6091Z" fill="black"/>
<path d="M462.426 100.353L465 120H456.998L455.457 108.256H447.368L445.8 120H437.825L440.398 100.435L445.994 64.6091H456.852L462.421 100.353H462.426ZM454.424 100.353L451.401 77.3182L448.379 100.353H454.424Z" fill="black"/>
<path d="M164.61 40.3583C164.61 47.2365 161.241 50.6783 154.51 50.7001C147.794 50.7001 144.437 47.2528 144.437 40.3583V0.774658H151.46V40.3583C151.46 42.5783 152.477 43.6856 154.515 43.6856C156.554 43.6856 157.592 42.5783 157.592 40.3583V0.774658H164.615V40.3583H164.61Z" fill="black"/>
<path d="M174.678 0.774658H181.701L188.352 29.2638V0.774658H194.857V49.8983H187.833L181.431 22.3092V49.8983H174.683V0.774658H174.678Z" fill="black"/>
<path d="M205.292 0.774658H212.316V49.8983H205.292V0.774658Z" fill="black"/>
<path d="M237.399 49.8983H227.769L222.805 18.1528L220.524 0.780113H227.623L232.559 38.6347L237.523 0.774658H244.622L242.341 18.2019L237.404 49.8983H237.399Z" fill="black"/>
<path d="M252.7 0.774658H270.917V7.76193H259.724V21.8292H269.354V28.8383H259.724V42.9056H270.917V49.8928H252.7V0.774658Z" fill="black"/>
<path d="M279.989 0.774658H290.214C296.454 0.791022 299.568 4.23829 299.568 11.1165V18.5019C299.568 22.8274 297.724 25.6692 294.031 27.0383L301.926 49.8983H294.231L287.905 28.2928L287.013 28.4183V49.8983H279.989V0.774658ZM287.013 7.76193V21.8292H288.624C289.603 21.8292 290.268 21.7638 290.636 21.6274C291.912 21.1092 292.544 20.0674 292.544 18.4965V11.111C292.544 8.87466 291.528 7.75648 289.49 7.75648H287.008L287.013 7.76193Z" fill="black"/>
<path d="M309.268 10.3145C309.268 3.43636 312.626 0 319.341 0C326.057 0 329.442 3.43636 329.442 10.3145V16.9255H322.418V10.3145C322.418 8.11091 321.402 7.00364 319.363 6.98727H319.314C317.298 6.98727 316.287 8.1 316.287 10.3145V14.7709C316.287 16.9582 318.476 19.6364 322.861 22.8055C327.246 25.9582 329.436 29.7382 329.436 34.1455V40.3527C329.436 47.2473 326.079 50.6945 319.363 50.6945C312.631 50.6782 309.263 47.2309 309.263 40.3527V33.7418H316.287V40.3527C316.287 42.5727 317.314 43.68 319.363 43.68C321.412 43.68 322.418 42.5727 322.418 40.3527V34.7455C322.418 32.3782 320.228 29.6073 315.843 26.4327C311.458 23.28 309.268 19.44 309.268 14.9182V10.3091V10.3145Z" fill="black"/>
<path d="M339.385 0.774658H346.409V49.8983H339.385V0.774658Z" fill="black"/>
<path d="M356.85 0.774658H367.669C373.909 0.791022 377.023 4.23829 377.023 11.1165V39.5838C377.023 46.4456 373.757 49.8819 367.22 49.8983H356.844V0.774658H356.85ZM363.873 7.76193V42.911H366.95C368.983 42.911 370.005 41.8038 370.005 39.5838V11.1165C370.005 8.88011 368.988 7.76193 366.95 7.76193H363.873Z" fill="black"/>
<path d="M406.426 32.471L408.708 49.8983H401.609L400.246 39.4856H393.076L391.687 49.8983H384.614L386.896 32.5474L391.86 0.774658H401.49L406.426 32.471ZM399.327 32.471L396.645 12.0437L393.963 32.471H399.321H399.327Z" fill="black"/>
<path d="M416.786 0.774658H427.605C433.845 0.791022 436.959 4.23829 436.959 11.1165V39.5838C436.959 46.4456 433.694 49.8819 427.157 49.8983H416.781V0.774658H416.786ZM423.81 7.76193V42.911H426.886C428.919 42.911 429.936 41.8038 429.936 39.5838V11.1165C429.936 8.88011 428.919 7.76193 426.886 7.76193H423.81Z" fill="black"/>
<path d="M446.784 0.774658H465V7.76193H453.808V21.8292H463.437V28.8383H453.808V42.9056H465V49.8928H446.784V0.774658Z" fill="black"/>
<path d="M118.943 59.6456C118.37 23.4056 81.0236 0.0437679 48.6952 15.7037C29.6519 24.9274 17.843 46.7728 21.6495 66.791C24.5639 82.1128 33.6152 92.6019 48.4195 97.1456C62.9859 101.613 76.0221 98.0237 86.8252 87.2237C97.2607 76.7947 100.678 60.9819 95.5845 48.8728C89.107 33.4747 70.0852 27.131 56.9084 36.0219C54.5997 37.5819 52.7559 39.4365 51.6096 41.7656H51.5988C50.6958 43.3692 50.9175 45.5947 50.9175 45.5947V52.031C50.9175 52.031 48.3113 56.4492 48.3708 60.1201C48.3708 60.1201 47.5219 62.4165 51.8259 64.9419C51.8259 64.9419 53.329 66.0874 54.0481 70.5656C54.0481 70.5656 54.8916 72.9001 57.952 73.0637C58.0547 74.1056 58.9793 84.1474 57.2653 86.9728C57.2653 86.9728 58.8495 86.2856 59.5308 83.0728C59.5308 83.0728 59.8715 85.3692 61.7423 86.9728C61.7423 86.9728 60.3256 82.8437 60.9474 72.9765H60.7961C62.1856 72.8728 64.316 72.3874 65.1973 70.451C65.1973 70.451 65.1973 66.551 67.4629 64.7128C67.4629 64.7128 70.8638 62.1874 70.6367 59.891C70.6367 59.891 71.3775 55.4183 67.8359 52.1456C67.8359 52.1456 67.6899 47.7274 68.1441 45.6601H68.1333C68.2631 45.0056 68.5064 44.5365 68.6632 44.2801C68.6632 44.2801 68.7389 44.1874 68.8578 44.0183C68.8578 44.0183 68.8578 44.0183 68.8633 44.0183C69.8527 42.3219 71.8371 41.6565 74.2324 42.3274C75.4544 42.6656 76.6385 43.3365 77.6983 44.0674C86.3332 50.0565 88.9664 59.0292 85.2356 69.5128C80.9749 81.4747 69.3607 88.8437 56.6273 87.671C44.8238 86.5801 34.1775 76.6528 32.5013 65.171C28.7489 39.4637 52.1287 17.2147 77.2495 22.5765C98.115 27.0328 110.946 46.3747 107.291 67.8547C102.03 98.7601 70.7827 116.776 41.8608 105.578C21.855 97.8328 9.26214 77.0074 11.2681 55.4128C12.209 45.2947 15.2747 36.0274 20.6871 27.5074C22.3362 24.911 21.9523 22.3692 19.8436 20.7383C17.962 19.2819 15.4531 19.7674 13.4526 21.9874C13.1173 22.3583 12.8091 22.7674 12.5117 23.1765C0.984056 38.8637 -2.79542 56.2692 2.08167 75.2292C9.94342 105.796 39.379 124.544 70.361 119.051C98.115 114.126 119.397 88.1128 118.948 59.651L118.943 59.6456ZM52.8856 61.271C51.3014 59.6619 51.9827 57.371 51.9827 57.371C52.4369 55.5328 53.3398 55.5328 53.3398 55.5328C52.8856 58.2874 53.794 59.4328 53.794 59.4328C54.9295 61.7292 56.2866 62.1874 56.2866 62.1874C54.0211 62.6456 52.8856 61.271 52.8856 61.271ZM66.787 60.8128C66.787 60.8128 65.6515 62.1874 63.386 61.7292C63.386 61.7292 64.7431 61.271 65.8786 58.9747C65.8786 58.9747 66.7816 57.8292 66.3328 55.0747C66.3328 55.0747 67.2358 55.0746 67.6899 56.9128C67.6899 56.9128 68.3712 59.2092 66.787 60.8128Z" fill="black"/>
<path d="M52.9668 3.21818C53.8417 3.21818 54.551 2.49777 54.551 1.60909C54.551 0.720415 53.8417 0 52.9668 0C52.0918 0 51.3825 0.720415 51.3825 1.60909C51.3825 2.49777 52.0918 3.21818 52.9668 3.21818Z" fill="black"/>
<path d="M26.2346 20.6509C28.7371 20.6509 30.7657 18.5971 30.7657 16.0636C30.7657 13.5301 28.7371 11.4763 26.2346 11.4763C23.7322 11.4763 21.7036 13.5301 21.7036 16.0636C21.7036 18.5971 23.7322 20.6509 26.2346 20.6509Z" fill="black"/>
<path d="M33.7125 12.851C35.4654 12.851 36.8864 11.4126 36.8864 9.63826C36.8864 7.86392 35.4654 6.42554 33.7125 6.42554C31.9596 6.42554 30.5386 7.86392 30.5386 9.63826C30.5386 11.4126 31.9596 12.851 33.7125 12.851Z" fill="black"/>
<path d="M40.7362 7.80537C41.9874 7.80537 43.0017 6.77726 43.0017 5.50901C43.0017 4.24076 41.9874 3.21265 40.7362 3.21265C39.4849 3.21265 38.4706 4.24076 38.4706 5.50901C38.4706 6.77726 39.4849 7.80537 40.7362 7.80537Z" fill="black"/>
<path d="M47.3056 5.05088C48.306 5.05088 49.117 4.22789 49.117 3.21269C49.117 2.19749 48.306 1.37451 47.3056 1.37451C46.3053 1.37451 45.4943 2.19749 45.4943 3.21269C45.4943 4.22789 46.3053 5.05088 47.3056 5.05088Z" fill="black"/>
</g>
<defs>
<clipPath id="clip0_21_7">
<rect width="465" height="120" fill="white"/>
</clipPath>
</defs>
</svg>
